<?xml version="1.0" encoding="UTF-8" standalone="no"?>
<svg
   xmlns:dc="http://purl.org/dc/elements/1.1/"
   xmlns:cc="http://creativecommons.org/ns#"
   xmlns:rdf="http://www.w3.org/1999/02/22-rdf-syntax-ns#"
   xmlns:svg="http://www.w3.org/2000/svg"
   xmlns="http://www.w3.org/2000/svg"
   xmlns:sodipodi="http://sodipodi.sourceforge.net/DTD/sodipodi-0.dtd"
   xmlns:inkscape="http://www.inkscape.org/namespaces/inkscape"
   width="512"
   height="512"
   viewBox="0 0 383.99999 383.99999"
   version="1.1"
   id="svg164"
   sodipodi:docname="buggy.svg"
   inkscape:version="0.92.4 5da689c313, 2019-01-14">
  <metadata
     id="metadata170">
    <rdf:RDF>
      <cc:Work
         rdf:about="">
        <dc:format>image/svg+xml</dc:format>
        <dc:type
           rdf:resource="http://purl.org/dc/dcmitype/StillImage" />
        <dc:title />
      </cc:Work>
    </rdf:RDF>
  </metadata>
  <defs
     id="defs168" />
  <sodipodi:namedview
     pagecolor="#ffffff"
     bordercolor="#666666"
     borderopacity="1"
     objecttolerance="10"
     gridtolerance="10"
     guidetolerance="10"
     inkscape:pageopacity="0"
     inkscape:pageshadow="2"
     inkscape:window-width="1920"
     inkscape:window-height="1016"
     id="namedview166"
     showgrid="false"
     units="px"
     inkscape:zoom="1.0386548"
     inkscape:cx="252.85579"
     inkscape:cy="116.13812"
     inkscape:window-x="0"
     inkscape:window-y="27"
     inkscape:window-maximized="1"
     inkscape:current-layer="svg164" />
  <g
     id="#000000ff"
     transform="matrix(0.53112032,0,0,0.53112032,-6.7999995e-7,63.999998)">
    <path
       d="m 482.53,0 h 17.05 c 16.58,1.23 34.4,4.6 46.95,16.37 9.53,8.68 13.24,22.11 12.43,34.68 -0.82,13.09 -3.24,26.85 -11.31,37.56 -3.56,4.88 -8.92,7.98 -14.54,9.92 35.6,3.94 70.88,13.2 102.91,29.43 17.31,8.83 33.66,19.85 47.29,33.76 11.42,11.89 21.1,26.19 24.47,42.56 2.01,9.29 1.42,19.04 -1.5,28.08 5.93,14.52 4.66,31 -0.15,45.65 -4.27,13.14 -12.43,25.33 -24.12,32.93 -3.32,2.23 -7.44,2.04 -11.23,1.61 -5.51,8.25 -12.18,15.71 -19.86,22 15.86,4.86 31.18,12 44.34,22.19 10.21,7.93 19.08,18.09 23.81,30.26 2.21,5.59 3.26,11.55 3.93,17.5 v 7.1 c -0.49,3.48 -1.14,7.18 -3.45,9.98 -2.62,3.23 -8.05,3.97 -11.18,1.09 -1.49,-1.51 -0.99,-3.82 -1.06,-5.72 0.81,-7.29 -2.49,-14.07 -4.59,-20.85 -4.46,-13.31 -12.44,-25.7 -24.11,-33.75 -11.26,-8.68 -25.49,-11.44 -38.46,-16.55 -5.04,-2.36 -10.81,-1.72 -15.91,-3.87 -4.31,4.91 -9.19,9.29 -14.53,13.07 17.49,6.08 34.46,14.48 48.33,26.92 12.03,10.63 21.36,25 23.53,41.14 0.87,7.44 1.77,15.71 -2.05,22.52 -2.55,4.65 -10.46,6.07 -13.54,1.32 -1.42,-4.24 0.48,-8.86 -0.86,-13.16 -3.48,-11.92 -7.27,-24.04 -14.43,-34.34 -6.62,-9.67 -16.06,-17.15 -26.41,-22.49 -7.8,-3.6 -16.07,-6.03 -24.15,-8.92 -4.6,-1.53 -9.15,-3.96 -14.15,-3.36 -3.14,0.29 -6.07,-0.95 -8.85,-2.2 -4.9,4.43 -10.45,8.01 -16.12,11.36 3.45,1.89 7.31,2.86 10.91,4.42 16.16,6.74 31.7,15.5 44.58,27.48 11.98,11.01 21.53,25.25 24.77,41.38 1.69,8.89 2.85,18.38 -0.11,27.13 -1.22,3.85 -4.39,6.87 -8.33,7.8 h -3.48 c -2.19,-0.7 -4.83,-1.59 -5.41,-4.1 -1.07,-4.66 0.85,-9.53 -0.61,-14.15 -4.33,-14.79 -9.1,-29.93 -18.65,-42.29 -7.75,-10.11 -18.25,-17.94 -29.64,-23.51 -15.82,-6.55 -32.43,-10.99 -48.15,-17.8 -13.66,8.5 -30.23,9.52 -45.89,9.38 -4.14,0.12 -8.23,-0.76 -12.09,-2.18 -10.97,13.03 -25.55,22.62 -40.86,29.82 -14.43,6.57 -29.57,11.52 -44.96,15.27 -24.23,5.76 -49.2,7.49 -74.04,7.57 -25.38,-0.54 -50.9,-1.07 -75.94,-5.59 -30.13,-5.11 -58.99,-16.5 -85.31,-31.9 -2.09,6.9 -3.64,13.96 -5.12,21.02 -1.03,4.75 0.33,9.64 -0.54,14.4 -0.67,3.92 -5.91,5.29 -8.76,2.78 -3.84,-3.32 -4.4,-8.82 -4.93,-13.55 -0.71,-11.7 1,-23.5 4.44,-34.68 -7.38,-5.6 -14.44,-11.69 -20.6,-18.63 -6.47,6.3 -11.71,13.84 -15.38,22.09 -5.09,11.39 -7.86,23.62 -10.47,35.77 -1.09,4.99 0.32,10.13 -0.68,15.12 -0.89,4.13 -6.83,4.84 -9.4,1.85 -3.49,-3.96 -3.96,-9.58 -4.32,-14.61 -0.43,-15.3 2.46,-30.85 9.43,-44.55 5.2,-10.41 12.56,-19.66 21.06,-27.57 -10.78,-14.2 -16.46,-32.12 -15.38,-49.95 0.24,-5.76 1.52,-11.4 2.65,-17.03 3.32,-7.76 5.32,-16.04 9.4,-23.48 3.67,-4.55 6.3,-10.35 11.55,-13.32 6.04,-1.91 9.63,-7.59 14.6,-11.17 6.01,-4.25 11.91,-8.68 18.32,-12.33 3.94,-2.34 8.21,-4.18 11.8,-7.07 18.92,-15.27 38.58,-29.64 59.01,-42.82 -8.57,-18.27 -18.07,-36.16 -29.34,-52.92 C 172.98,113.84 158.83,96.84 141.47,83.57 125.75,71.42 107.02,62.81 87.19,60.49 71.25,58.49 55,60.63 39.72,65.35 c 8.01,3.68 16.16,8.44 20.79,16.23 4.11,6.76 3.52,15.69 -0.63,22.29 -5.94,9.69 -16.67,16.08 -27.85,17.56 -8.22,1.16 -17.11,-1.46 -22.7,-7.75 C 3.13,106.83 0.96,97.45 0,88.51 V 78.11 C 1.27,69.72 5.56,61.69 12.6,56.79 24.82,48.02 40.42,46.27 55.04,45.78 c 18.03,-0.03 36.14,2.32 53.41,7.57 24.12,7.89 44.2,24.53 61.4,42.73 22.5,24.25 40.51,52.41 54.88,82.13 31.42,-19.49 64.46,-36.44 98.99,-49.69 C 343.44,93.77 366.6,60.24 396.93,33.86 409.5,23.13 423.45,13.64 439.09,8.02 453.07,3.17 467.83,1.11 482.53,0 m -81.3,46.28 c -24.35,20.92 -42.93,47.66 -58.77,75.36 55.36,-18.93 114.29,-28.58 172.82,-24.78 -11,-4.72 -20.27,-13.71 -24.44,-25.02 -3.08,-8.22 -2.78,-17.78 1.49,-25.53 4.73,-8.74 13.05,-14.95 21.88,-19.15 0.67,-0.19 2.56,-1.36 0.86,-1.72 -14.91,-6.01 -31.06,-9.33 -47.18,-8.35 -24.87,1.3 -48.01,13.21 -66.66,29.19 M 503.67,45.8 c -4.94,12.48 -2.12,28.32 8.48,37.04 5.71,4.79 13.71,6.82 20.96,4.93 8.87,-2.19 16.01,-9.48 18.94,-18.02 0.8,-2.02 1.38,-4.14 1.66,-6.3 0.92,-4.95 0.74,-10.16 -0.83,-14.95 -2.44,-11.39 -13.01,-21.1 -24.96,-20.8 -10.97,-0.08 -20.51,8.16 -24.25,18.1 M 16.16,69.16 c -5.22,2.78 -9.3,7.61 -11.05,13.28 -1.39,3.77 -1.64,7.92 -0.85,11.86 0.43,1.81 0.96,3.62 1.85,5.26 4.14,10.21 16.36,15.8 26.91,13.37 9.58,-1.8 17.57,-10.07 18.79,-19.77 C 52.95,85.65 50.14,77.69 44.49,72.6 37.08,65.54 25.06,64.21 16.16,69.16 m 328.34,58.49 c -2.3,0.9 -4.83,1.38 -6.87,2.8 -1.91,3 -3.4,6.24 -5.03,9.4 -4.45,8.33 -8.43,16.9 -12.45,25.45 -1.29,2.81 -2.57,5.62 -3.78,8.46 h -0.16 c -1.14,2.82 -2.33,5.61 -3.54,8.4 7.73,0.42 15.52,1.17 23.21,-0.04 5.89,-0.81 11.55,-2.76 17.02,-5 40.42,-17.19 80.95,-34.4 122.97,-47.33 26.16,-8.04 53,-14.35 80.35,-16.46 -2.53,-0.72 -5.04,-1.62 -7.65,-1.97 -12.03,-3.21 -24.36,-5.18 -36.72,-6.55 -56.61,-5.92 -113.96,3.94 -167.35,22.84 m 148.5,2.39 c -24.38,5.08 -48.32,12.88 -70.41,24.47 -10.71,5.85 -21.41,12.41 -29.32,21.88 -3.22,3.92 -5.96,8.98 -4.81,14.21 1.27,4.88 5.73,8.09 10.2,9.86 21.23,8.36 41.41,19.48 59.59,33.28 13.65,10.5 26.44,22.46 36.07,36.84 5.31,8.19 10.26,17.44 9.94,27.48 0.01,4.07 -2.23,7.55 -3.89,11.1 7.77,-1.37 15.11,-4.35 22.51,-6.99 27.77,-10.41 55.05,-22.07 82.06,-34.27 18.91,-8.72 37.84,-17.5 55.79,-28.1 4.35,-2.49 8.62,-5.54 11.11,-10.02 4.09,-6.82 4.07,-15.25 2.52,-22.83 -3.51,-15.05 -12.66,-28.07 -22.96,-39.29 -12.58,-13.46 -27.57,-24.58 -43.69,-33.42 -10.01,-4.02 -20.69,-6.18 -31.32,-7.81 -27.72,-3.99 -56.03,-1.93 -83.39,3.61 m -265.07,55.23 c 0.42,0.98 0.85,1.96 1.28,2.94 0.48,1.19 0.97,2.38 1.46,3.57 22.01,-6.08 44.77,-9.45 67.61,-9.82 0.99,-2.4 1.97,-4.8 2.95,-7.21 1.39,-3.26 2.8,-6.51 4.19,-9.76 2.31,-5.14 4.85,-10.18 7.11,-15.34 2.35,-3.87 4.04,-8.15 6.3,-12.09 -31.64,13.16 -61.95,29.4 -90.9,47.71 m 4.66,10.95 c 0.12,0.53 0.37,1.58 0.49,2.11 l 0.23,-0.05 c 0.51,1.46 1.03,2.92 1.56,4.39 0.46,1.43 0.92,2.87 1.38,4.31 17.91,-1.6 35.92,-2.21 53.89,-1.45 0.61,-1.99 1.22,-3.97 1.82,-5.96 0.64,-2 1.31,-3.99 1.97,-5.99 l 0.13,0.01 c 0.45,-1.38 0.9,-2.75 1.36,-4.12 -21.12,0 -42.22,2.1 -62.83,6.75 m 76.58,-6.04 c -0.2,0.66 -0.6,1.99 -0.8,2.65 l -0.18,-0.02 c -0.41,0.93 -0.81,1.86 -1.21,2.8 -0.45,1.14 -0.89,2.29 -1.33,3.43 -0.34,0.82 -0.68,1.64 -1.02,2.47 -0.61,1.56 -1.22,3.13 -1.83,4.69 31.97,2.77 63.85,10.03 92.77,24.21 36.11,17.28 66.57,45.39 88.04,79.06 1.27,1.8 3.64,5.46 5.98,3 2.99,-6.37 1.92,-13.78 1.3,-20.56 -1.66,-14.57 -11.3,-26.49 -21.22,-36.58 -15.35,-14.98 -33.57,-26.69 -52.66,-36.31 -33.57,-16.59 -70.45,-26.54 -107.84,-28.84 m -103.36,9.71 c 4.46,-1.52 8.89,-3.16 13.35,-4.69 -0.48,-1.11 -0.96,-2.21 -1.43,-3.3 -4.03,2.57 -8.12,5.08 -11.92,7.99 m -10.18,8.14 c -1.81,3.86 4.66,2.43 6.85,2.25 7.47,-0.26 14.86,-1.46 22.29,-2.2 -0.51,-1.07 -1.06,-2.11 -1.64,-3.13 -0.4,-1.19 -0.81,-2.37 -1.22,-3.55 -0.23,-0.49 -0.7,-1.48 -0.93,-1.97 -8.54,2.52 -17.31,4.72 -25.35,8.6 m 45.48,17.46 c 0.32,3.5 0.43,7.02 0.43,10.54 -0.53,2.8 -1.97,5.23 -3.98,7.21 -0.45,-2.27 -1.1,-4.49 -1.93,-6.65 -1.27,-3.32 -2.46,-6.66 -3.69,-10 -25.17,3.3 -49.85,10.45 -72.81,21.29 -0.38,-0.49 -1.13,-1.48 -1.51,-1.98 -1.74,1 -3.48,1.99 -5.22,2.98 6.81,0.14 13.58,1.15 20.17,2.84 5.54,1.63 10.94,3.78 15.82,6.88 l 0.16,-0.08 c 2.75,2.07 5.38,4.3 7.76,6.79 6.23,7.36 7.23,18.01 3.55,26.77 -6.7,16.46 -20.55,29.88 -37.23,36.05 -6.6,2.31 -13.51,3.69 -20.5,4 -7.88,0.3 -15.78,-0.82 -23.27,-3.26 -5.43,-1.97 -10.49,-4.8 -15.06,-8.33 0.69,7.73 2.84,15.29 6.29,22.24 -3.13,1.48 -7.28,5.08 -4.51,8.76 3.72,3.92 9.42,4.94 14.52,5.93 13.57,16.75 31.78,29.09 50.86,38.77 15.67,7.94 32.16,14.23 49.2,18.55 -1.46,-4.54 -2.52,-9.19 -3.45,-13.86 -0.83,-4.17 -1.27,-8.44 -2.41,-12.54 -3.78,-2.98 -6.7,-6.91 -7.57,-11.74 -0.15,-3.25 0.29,-6.55 2,-9.36 -0.38,3.55 -0.76,7.16 0.15,10.68 2.16,4.81 6.77,8.42 12.05,9.01 3.09,0.35 5.91,-1.19 8.58,-2.5 3.29,-1.87 6.66,-4.02 10.54,-4.27 4.3,0.24 6.2,4.66 8.37,7.72 l 0.1,0.01 c 4.28,4.84 10.75,8.39 17.36,7.45 3.45,-0.44 6.3,-2.59 8.75,-4.91 2.14,-2.67 3.88,-5.64 5.18,-8.8 0.17,-0.02 0.51,-0.08 0.68,-0.1 -0.15,6.97 -5.07,12.88 -11.18,15.76 -0.58,3 -1.56,5.89 -2.46,8.8 -2.4,4.77 -4.93,9.48 -8.04,13.84 -1.4,1.02 0.52,1.24 1.17,1.33 10.33,0.95 20.71,1.39 31.09,1.69 26.01,0.79 52.25,0.4 77.89,-4.57 17.88,-3.49 35.46,-8.84 52.05,-16.42 12.98,-6.15 25.56,-14.05 34.74,-25.29 8.24,-10.45 11.93,-24.76 8.3,-37.74 -2.95,-9.9 -7.58,-19.24 -12.98,-28.02 1.63,6.15 3.15,12.53 2.19,18.93 -0.33,4.01 -2.02,7.68 -3.42,11.38 l 0.02,0.77 -0.47,0.01 c -4.45,7.21 -11.08,12.9 -18.74,16.48 -25.91,12 -59.13,5.32 -78.34,-15.84 -8.28,-9.3 -15.93,-20.7 -15.77,-33.63 0.22,-10.44 7.62,-19.18 16.4,-24.04 14.74,-8.25 32.25,-10.25 48.86,-8.77 7.27,0.98 14.57,2.45 21.24,5.63 2.3,1.1 4.66,2.07 7.09,2.87 -6.56,-7.44 -14.24,-13.77 -22.01,-19.89 -2.12,-1.62 -4.4,-3.01 -6.7,-4.34 -32.48,-18.77 -68.97,-30.35 -106.2,-34.55 -1.14,3.09 -2.27,6.18 -3.41,9.27 -1.1,3.02 -2.13,6.06 -3.09,9.14 -2.6,-2.51 -3.45,-6.05 -3.83,-9.51 0.14,-3.28 0.38,-6.54 0.71,-9.8 -14.81,-1.1 -29.7,-0.92 -44.49,0.42 m 447.86,31.17 c -3.21,2.64 -6.39,5.32 -9.79,7.72 4.47,7.84 2.7,17.25 1.42,25.7 1.28,-1.52 2.55,-3.06 3.84,-4.58 0.11,0.82 0.33,2.45 0.45,3.27 2.28,-0.79 4.53,-2.11 5.47,-4.46 2.73,-6.02 4.09,-12.68 3.94,-19.29 0.11,-4.09 -1.39,-8.05 -0.97,-12.15 -1.47,1.25 -2.93,2.5 -4.36,3.79 M 112,263.12 c -7.89,4.57 -14.85,11.84 -16.66,21.04 -2.09,10.97 2.24,22.74 10.27,30.35 5.11,5 11.91,7.94 18.88,9.23 l 0.05,0.18 c 4.23,0.29 8.62,1.65 12.8,0.52 14.59,-0.42 28.9,-5.89 40.56,-14.58 8.71,-6.66 16.31,-16.42 16.38,-27.85 0.33,-5.65 -3.04,-10.59 -6.63,-14.61 -7.76,-8.1 -19,-11.75 -29.89,-13.04 -15.62,-1.62 -32.04,0.83 -45.76,8.76 m 546.87,14.87 c -6.55,3.94 -13.23,7.67 -19.97,11.29 3.14,12.09 0.88,25.02 -4.04,36.33 2.01,-1.37 3.94,-2.86 5.75,-4.48 3.21,3.38 7.85,0.51 11.09,-1.35 14.86,-9.19 18.65,-29.83 13.3,-45.5 -2.02,1.27 -4.07,2.5 -6.13,3.71 m -283.44,4.58 c -6.8,1.02 -13.64,2.77 -19.68,6.15 -7.03,5.04 -12.36,13.33 -12,22.22 0.34,8.6 5.14,16.26 10.65,22.57 10.18,11.14 23.61,19.95 38.65,22.55 11.35,1.75 23.52,1.46 33.96,-3.81 9.66,-4.66 18.63,-12.58 21.26,-23.35 2.45,-9.52 1.67,-21.14 -5.94,-28.19 -9.14,-8.51 -20.95,-13.9 -33.13,-16.34 -11.06,-2.37 -22.52,-3.38 -33.77,-1.8 m 243.72,16.79 c -7.71,3.5 -15.38,7.07 -23.11,10.52 3.01,12.47 0.43,25.7 -5.97,36.69 1.62,-0.99 3.9,-1.36 5.16,-2.83 2.62,1.7 5.85,1.49 8.76,0.72 5.69,-1.55 11.11,-4.07 16.02,-7.34 -2.83,-2.07 -6.44,-5.5 -3.3,-9.02 3.57,0.4 7.16,0.72 10.73,1.25 4.45,-6.03 8.83,-13.55 7.06,-21.31 -2.08,-4.91 -6.1,-9.19 -11.33,-10.69 -1.35,0.67 -2.67,1.35 -4.02,2.01 m -43.81,19.08 -0.21,0.37 c -7.89,2.39 -15.43,5.76 -23.25,8.37 1.79,11.45 -0.52,23.5 -6.08,33.64 -2.42,1.53 2.61,2.37 1.6,0.01 0.56,-0.02 1.66,-0.05 2.21,-0.07 0.13,2.08 2.61,2.61 4.3,2.49 6.7,-0.55 13.02,-3.3 18.86,-6.51 -1.9,-1.57 -4.16,-2.92 -5.37,-5.13 -0.83,-1.56 0.22,-3.18 0.61,-4.69 4.79,0.14 9.56,0.64 14.29,1.42 4.89,-5.79 8.55,-13.46 7.09,-21.2 -0.8,-3.76 -2.1,-7.99 -5.58,-10.1 -2.83,-1.55 -5.81,0.44 -8.47,1.4 m -47.63,16.81 c -15.08,3.33 -30.41,8.28 -46.04,5.81 1.37,10.33 -0.21,20.88 -3.94,30.58 -1.96,1.14 1.62,2.64 2.1,0.87 l 1.22,0.68 c 1.27,3.64 5.3,4.98 8.8,5.35 8.98,0.87 17.96,-1.1 26.49,-3.76 -2.06,-1.92 -4.79,-3.74 -5.2,-6.76 0.29,-1.29 0.92,-2.46 1.48,-3.64 6.19,0.24 12.31,1.25 18.45,1.97 8.37,-6.26 13.64,-16.93 12.85,-27.44 -0.1,-2.82 -2.01,-5.67 -4.95,-6.05 -3.87,-0.56 -7.76,0.89 -11.26,2.39 m -298.35,52.06 c -3.84,2.27 -8.51,2.51 -12.81,1.75 2.93,7.18 4.13,14.88 6,22.37 2.14,7.35 4.74,16.26 12.58,19.33 5.16,2.38 11.06,0.07 14.91,-3.66 6.05,-5.84 9.77,-13.56 13.36,-21.04 1.22,-2.66 2.43,-5.31 3.67,-7.95 -5.53,0.03 -10.95,-1.7 -15.69,-4.47 -4.64,-2.86 -5.71,-9.75 -11.43,-11.12 -4.09,-0.06 -7.17,3.02 -10.59,4.79 z"
       id="path2"
       inkscape:connector-curvature="0"
       style="opacity:1;fill:#000000" />
  </g>
  <g
     id="#bf7c04ff"
     transform="matrix(0.53112032,0,0,0.53112032,-6.7999995e-7,63.999998)">
    <path
       d="m 503.67,45.8 c 3.74,-9.94 13.28,-18.18 24.25,-18.1 11.95,-0.3 22.52,9.41 24.96,20.8 -3.44,-5.62 -8.13,-11.2 -14.92,-12.55 -4.9,-1.47 -9.78,0.44 -14.26,2.29 -1.87,0.62 -3.97,0.71 -5.64,1.78 -2.19,1.93 -1.84,5.15 -2.58,7.73 -2.11,5.84 -3.17,12.21 -1.51,18.32 1.85,7.07 7.12,13.56 14.31,15.6 6.21,1.9 13.49,0.22 17.93,-4.62 2.24,-2.18 4.15,-4.67 5.84,-7.3 -2.93,8.54 -10.07,15.83 -18.94,18.02 -7.25,1.89 -15.25,-0.14 -20.96,-4.93 -10.6,-8.72 -13.42,-24.56 -8.48,-37.04 z"
       id="path5"
       inkscape:connector-curvature="0"
       style="opacity:1;fill:#bf7c04" />
    <path
       d="m 16.16,69.16 c 8.9,-4.95 20.92,-3.62 28.33,3.44 5.65,5.09 8.46,13.05 7.32,20.56 -1.22,9.7 -9.21,17.97 -18.79,19.77 -10.55,2.43 -22.77,-3.16 -26.91,-13.37 1.48,1.64 3.03,3.23 4.72,4.66 8.4,7.86 23.73,4.52 28.55,-5.81 2.88,-5.09 1.85,-11.06 0.32,-16.39 -0.62,-1.9 -0.57,-4.24 -2.03,-5.75 -1.66,-1 -3.62,-1.3 -5.43,-1.92 C 27.82,72.74 23.09,71.2 18.36,72.5 12.63,73.54 8.26,77.77 5.11,82.44 6.86,76.77 10.94,71.94 16.16,69.16 Z"
       id="path7"
       inkscape:connector-curvature="0"
       style="opacity:1;fill:#bf7c04" />
    <path
       d="m 548.57,111.36 c 2.61,0.35 5.12,1.25 7.65,1.97 -27.35,2.11 -54.19,8.42 -80.35,16.46 -42.02,12.93 -82.55,30.14 -122.97,47.33 -5.47,2.24 -11.13,4.19 -17.02,5 -7.69,1.21 -15.48,0.46 -23.21,0.04 1.21,-2.79 2.4,-5.58 3.54,-8.4 h 0.16 c 14.09,-0.1 28.28,-2.23 41.64,-6.77 10.13,-4.03 20.03,-8.65 30.13,-12.78 28,-11.69 56.53,-22.24 85.76,-30.45 24.34,-6.78 49.33,-11.87 74.67,-12.4 z"
       id="path9"
       inkscape:connector-curvature="0"
       style="opacity:1;fill:#bf7c04" />
    <path
       d="m 493,130.04 c 27.36,-5.54 55.67,-7.6 83.39,-3.61 10.63,1.63 21.31,3.79 31.32,7.81 16.12,8.84 31.11,19.96 43.69,33.42 10.3,11.22 19.45,24.24 22.96,39.29 1.55,7.58 1.57,16.01 -2.52,22.83 -2.49,4.48 -6.76,7.53 -11.11,10.02 -17.95,10.6 -36.88,19.38 -55.79,28.1 -27.01,12.2 -54.29,23.86 -82.06,34.27 -7.4,2.64 -14.74,5.62 -22.51,6.99 1.66,-3.55 3.9,-7.03 3.89,-11.1 0.32,-10.04 -4.63,-19.29 -9.94,-27.48 -9.63,-14.38 -22.42,-26.34 -36.07,-36.84 -18.18,-13.8 -38.36,-24.92 -59.59,-33.28 -4.47,-1.77 -8.93,-4.98 -10.2,-9.86 -1.15,-5.23 1.59,-10.29 4.81,-14.21 7.91,-9.47 18.61,-16.03 29.32,-21.88 22.09,-11.59 46.03,-19.39 70.41,-24.47 m -83.97,38.1 c -4.88,3.86 -7.94,10.7 -5.99,16.85 1.47,4.89 4.96,8.86 8.71,12.2 9.45,8.22 20.93,13.48 32.05,18.99 12.87,6.86 24.08,16.4 34.81,26.18 11.45,10.93 22.52,22.48 31.16,35.81 2.69,4.18 5.14,8.87 4.53,14.01 17.72,-6.99 34.76,-15.57 51.77,-24.11 16.73,-8.53 33.26,-17.56 48.96,-27.89 6.66,-4.6 13.45,-9.26 18.71,-15.48 5.12,-6.44 9.22,-13.76 11.52,-21.68 3.8,-12.49 2.35,-26.59 -4.42,-37.81 -6.98,-11.93 -18.53,-20.61 -31.12,-25.94 -19.54,-8 -40.69,-11.52 -61.73,-11.99 -48.98,-0.8 -98.5,12.97 -138.96,40.86 z"
       id="path11"
       inkscape:connector-curvature="0"
       style="opacity:1;fill:#bf7c04" />
    <path
       d="m 264.03,177.96 c 12.22,-2.57 24.74,-3.28 37.2,-3.21 -0.98,2.41 -1.96,4.81 -2.95,7.21 -22.84,0.37 -45.6,3.74 -67.61,9.82 -0.49,-1.19 -0.98,-2.38 -1.46,-3.57 11.49,-3.79 22.92,-7.92 34.82,-10.25 z"
       id="path13"
       inkscape:connector-curvature="0"
       style="opacity:1;fill:#bf7c04" />
    <path
       d="m 232.59,196.22 c 20.61,-4.65 41.71,-6.75 62.83,-6.75 -0.46,1.37 -0.91,2.74 -1.36,4.12 l -0.13,-0.01 c -15.05,-0.72 -30.06,0.57 -44.96,2.57 -5.25,0.45 -10.53,0.86 -15.66,2.13 l -0.23,0.05 c -0.12,-0.53 -0.37,-1.58 -0.49,-2.11 z"
       id="path15"
       inkscape:connector-curvature="0"
       style="opacity:1;fill:#bf7c04" />
    <path
       d="m 309.17,190.18 c 37.39,2.3 74.27,12.25 107.84,28.84 19.09,9.62 37.31,21.33 52.66,36.31 9.92,10.09 19.56,22.01 21.22,36.58 0.62,6.78 1.69,14.19 -1.3,20.56 -2.34,2.46 -4.71,-1.2 -5.98,-3 -21.47,-33.67 -51.93,-61.78 -88.04,-79.06 -28.92,-14.18 -60.8,-21.44 -92.77,-24.21 0.61,-1.56 1.22,-3.13 1.83,-4.69 48.08,4.64 94.83,21.31 135.52,47.23 5.99,3.61 11.33,8.18 17.33,11.76 -4.17,-5.44 -9.49,-9.82 -14.57,-14.38 -25.25,-21.97 -55.91,-37.43 -88.3,-45.64 -15.14,-4.05 -30.72,-5.82 -46.24,-7.65 0.2,-0.66 0.6,-1.99 0.8,-2.65 z"
       id="path17"
       inkscape:connector-curvature="0"
       style="opacity:1;fill:#bf7c04" />
    <path
       d="m 205.81,199.89 c 3.8,-2.91 7.89,-5.42 11.92,-7.99 0.47,1.09 0.95,2.19 1.43,3.3 -4.46,1.53 -8.89,3.17 -13.35,4.69 z"
       id="path19"
       inkscape:connector-curvature="0"
       style="opacity:1;fill:#bf7c04" />
    <path
       d="m 234.87,202.67 c 8.62,-1.58 17.37,-2.14 26.07,-3.09 10.34,-0.15 20.68,-0.02 31.02,-0.01 -0.6,1.99 -1.21,3.97 -1.82,5.96 -17.97,-0.76 -35.98,-0.15 -53.89,1.45 -0.46,-1.44 -0.92,-2.88 -1.38,-4.31 z"
       id="path21"
       inkscape:connector-curvature="0"
       style="opacity:1;fill:#bf7c04" />
    <path
       d="m 207.26,207.9 c 5.28,-1.04 10.51,-2.39 15.87,-2.95 0.58,1.02 1.13,2.06 1.64,3.13 -7.43,0.74 -14.82,1.94 -22.29,2.2 1.6,-0.77 3.17,-1.62 4.78,-2.38 z"
       id="path23"
       inkscape:connector-curvature="0"
       style="opacity:1;fill:#bf7c04" />
    <path
       d="m 241.11,225.49 c 14.79,-1.34 29.68,-1.52 44.49,-0.42 -0.33,3.26 -0.57,6.52 -0.71,9.8 -14.46,-0.38 -28.94,-0.14 -43.35,1.16 0,-3.52 -0.11,-7.04 -0.43,-10.54 z"
       id="path25"
       inkscape:connector-curvature="0"
       style="opacity:1;fill:#bf7c04" />
    <path
       d="m 295.22,225.97 c 37.23,4.2 73.72,15.78 106.2,34.55 2.3,1.33 4.58,2.72 6.7,4.34 7.77,6.12 15.45,12.45 22.01,19.89 -2.43,-0.8 -4.79,-1.77 -7.09,-2.87 -6.67,-3.18 -13.97,-4.65 -21.24,-5.63 -5.55,-5.61 -12.2,-9.96 -18.84,-14.16 -27.35,-16.85 -59.38,-24.45 -91.15,-26.85 1.14,-3.09 2.27,-6.18 3.41,-9.27 z"
       id="path27"
       inkscape:connector-curvature="0"
       style="opacity:1;fill:#bf7c04" />
    <path
       d="m 159.13,247.88 c 22.96,-10.84 47.64,-17.99 72.81,-21.29 1.23,3.34 2.42,6.68 3.69,10 -21.41,2.96 -43.09,6.52 -63.06,15.13 -6.59,-1.69 -13.36,-2.7 -20.17,-2.84 1.74,-0.99 3.48,-1.98 5.22,-2.98 0.38,0.5 1.13,1.49 1.51,1.98 z"
       id="path29"
       inkscape:connector-curvature="0"
       style="opacity:1;fill:#bf7c04" />
    <path
       d="m 110.75,258.18 c 4.75,-3.88 9.41,-7.89 14.6,-11.17 -4.97,3.58 -8.56,9.26 -14.6,11.17 z"
       id="path31"
       inkscape:connector-curvature="0"
       style="opacity:1;fill:#bf7c04" />
    <path
       d="m 89.8,294.98 c 0.84,-8.52 4.37,-16.61 9.4,-23.48 -4.08,7.44 -6.08,15.72 -9.4,23.48 z"
       id="path33"
       inkscape:connector-curvature="0"
       style="opacity:1;fill:#bf7c04" />
    <path
       d="m 451.07,310.96 c 5.4,8.78 10.03,18.12 12.98,28.02 3.63,12.98 -0.06,27.29 -8.3,37.74 -9.18,11.24 -21.76,19.14 -34.74,25.29 -16.59,7.58 -34.17,12.93 -52.05,16.42 -25.64,4.97 -51.88,5.36 -77.89,4.57 -10.38,-0.3 -20.76,-0.74 -31.09,-1.69 -0.65,-0.09 -2.57,-0.31 -1.17,-1.33 3.11,-4.36 5.64,-9.07 8.04,-13.84 -0.14,0.51 -0.43,1.52 -0.57,2.03 29.46,2.24 59.17,0.81 88.36,-3.61 17.28,-2.88 34.67,-6.2 51.01,-12.64 5.03,-0.32 11.96,0.35 14.26,-5.35 9.39,-4.61 18.91,-9.79 25.65,-18.01 6.04,-7.28 7.01,-17.68 4.3,-26.52 l -0.02,-0.77 c 1.4,-3.7 3.09,-7.37 3.42,-11.38 0.96,-6.4 -0.56,-12.78 -2.19,-18.93 z"
       id="path35"
       inkscape:connector-curvature="0"
       style="opacity:1;fill:#bf7c04" />
    <path
       d="m 103.8,320.54 c 4.57,3.53 9.63,6.36 15.06,8.33 1.29,3.34 2.65,6.64 4.09,9.92 -4.41,0.85 -8.81,2.01 -12.86,3.99 -3.45,-6.95 -5.6,-14.51 -6.29,-22.24 z"
       id="path37"
       inkscape:connector-curvature="0"
       style="opacity:1;fill:#bf7c04" />
    <path
       d="m 120.1,357.47 c 6.27,0.93 12.62,0.9 18.95,0.74 -0.6,0.12 -1.79,0.35 -2.39,0.47 7.08,8.24 15.86,14.87 25.04,20.6 16.92,10.34 35.84,16.93 55.01,21.65 0.93,4.67 1.99,9.32 3.45,13.86 -17.04,-4.32 -33.53,-10.61 -49.2,-18.55 -19.08,-9.68 -37.29,-22.02 -50.86,-38.77 z"
       id="path39"
       inkscape:connector-curvature="0"
       style="opacity:1;fill:#bf7c04" />
  </g>
  <g
     id="#dfbe02ff"
     transform="matrix(0.53112032,0,0,0.53112032,-6.7999995e-7,63.999998)">
    <path
       d="m 523.7,38.24 c 4.48,-1.85 9.36,-3.76 14.26,-2.29 6.79,1.35 11.48,6.93 14.92,12.55 1.57,4.79 1.75,10 0.83,14.95 -0.92,-5.26 -2.16,-11.13 -6.62,-14.6 -4.64,-3.9 -11.85,-4.06 -16.66,-0.39 -9.11,6.59 -9.01,22.47 0.78,28.38 4.5,3.05 10.22,1.9 15,0.21 -4.44,4.84 -11.72,6.52 -17.93,4.62 -7.19,-2.04 -12.46,-8.53 -14.31,-15.6 -1.66,-6.11 -0.6,-12.48 1.51,-18.32 1.85,1.46 3.45,4.1 6.12,3.84 4.06,-0.38 6.55,-5.39 4.78,-8.96 -0.77,-1.54 -1.77,-2.95 -2.68,-4.39 z"
       id="path42"
       inkscape:connector-curvature="0"
       style="opacity:1;fill:#dfbe02" />
    <path
       d="m 18.36,72.5 c 4.73,-1.3 9.46,0.24 13.88,1.85 -1.02,1.56 -2.21,3.03 -2.91,4.77 -0.92,3.57 3.19,7.09 6.57,5.62 1.38,-0.74 2.56,-1.78 3.8,-2.72 1.53,5.33 2.56,11.3 -0.32,16.39 -4.82,10.33 -20.15,13.67 -28.55,5.81 4.97,1.6 10.92,2.26 15.33,-1.14 5.74,-3.84 7.21,-12.63 2.7,-17.97 C 24.29,78.8 14.14,78.21 8.69,83.66 5.68,86.34 4.83,90.49 4.26,94.3 3.47,90.36 3.72,86.21 5.11,82.44 8.26,77.77 12.63,73.54 18.36,72.5 Z"
       id="path44"
       inkscape:connector-curvature="0"
       style="opacity:1;fill:#dfbe02" />
    <path
       d="m 409.03,168.14 c 40.46,-27.89 89.98,-41.66 138.96,-40.86 21.04,0.47 42.19,3.99 61.73,11.99 12.59,5.33 24.14,14.01 31.12,25.94 6.77,11.22 8.22,25.32 4.42,37.81 -2.3,7.92 -6.4,15.24 -11.52,21.68 -5.26,6.22 -12.05,10.88 -18.71,15.48 -15.7,10.33 -32.23,19.36 -48.96,27.89 -17.01,8.54 -34.05,17.12 -51.77,24.11 0.61,-5.14 -1.84,-9.83 -4.53,-14.01 -8.64,-13.33 -19.71,-24.88 -31.16,-35.81 -10.73,-9.78 -21.94,-19.32 -34.81,-26.18 -11.12,-5.51 -22.6,-10.77 -32.05,-18.99 -3.75,-3.34 -7.24,-7.31 -8.71,-12.2 -1.95,-6.15 1.11,-12.99 5.99,-16.85 m 111.04,-36.38 c -22.01,2.01 -44.19,6.37 -64.2,16.06 -11.62,4.53 -23.13,10.11 -32.46,18.53 -4.4,4.25 -8.55,10.17 -7.19,16.61 1.83,6.69 8.14,10.68 13.8,13.95 11.47,5.6 23.48,9.94 35.25,14.84 7.38,3.17 14.27,7.46 20.45,12.59 4.48,3.91 8.35,8.47 12.73,12.5 3.04,-10.15 10.94,-18.32 20.18,-23.18 16.2,-8.75 34.58,-11.86 52.41,-15.6 15.49,-2.62 31.59,-4.08 45.93,-11.01 5.44,-2.56 9.99,-7.8 10.01,-14.05 -0.02,-10.63 -6.19,-20.23 -13.66,-27.34 -3.35,-3.44 -8.03,-4.85 -12.42,-6.42 -14.8,-5.05 -30.4,-7.31 -45.96,-8.31 -11.62,-0.06 -23.3,-0.56 -34.87,0.83 z"
       id="path46"
       inkscape:connector-curvature="0"
       style="opacity:1;fill:#dfbe02" />
    <path
       d="m 308.19,192.81 0.18,0.02 c 15.52,1.83 31.1,3.6 46.24,7.65 32.39,8.21 63.05,23.67 88.3,45.64 5.08,4.56 10.4,8.94 14.57,14.38 -6,-3.58 -11.34,-8.15 -17.33,-11.76 -40.69,-25.92 -87.44,-42.59 -135.52,-47.23 0.34,-0.83 0.68,-1.65 1.02,-2.47 31.13,3.22 61.41,11.83 90.74,22.48 5.18,1.78 10.26,3.87 15.54,5.35 -15.05,-7.65 -30.17,-15.39 -46.33,-20.48 -18.92,-6.36 -38.78,-9.26 -58.62,-10.78 0.4,-0.94 0.8,-1.87 1.21,-2.8 z"
       id="path48"
       inkscape:connector-curvature="0"
       style="opacity:1;fill:#dfbe02" />
    <path
       d="m 195.63,208.03 c 8.04,-3.88 16.81,-6.08 25.35,-8.6 0.23,0.49 0.7,1.48 0.93,1.97 -7.6,1.92 -15.7,2.75 -22.64,6.64 2.66,0.05 5.33,0.04 7.99,-0.14 -1.61,0.76 -3.18,1.61 -4.78,2.38 -2.19,0.18 -8.66,1.61 -6.85,-2.25 z"
       id="path50"
       inkscape:connector-curvature="0"
       style="opacity:1;fill:#dfbe02" />
    <path
       d="m 241.54,236.03 c 14.41,-1.3 28.89,-1.54 43.35,-1.16 0.38,3.46 1.23,7 3.83,9.51 0.96,-3.08 1.99,-6.12 3.09,-9.14 31.77,2.4 63.8,10 91.15,26.85 6.64,4.2 13.29,8.55 18.84,14.16 -16.61,-1.48 -34.12,0.52 -48.86,8.77 -8.78,4.86 -16.18,13.6 -16.4,24.04 -0.16,12.93 7.49,24.33 15.77,33.63 19.21,21.16 52.43,27.84 78.34,15.84 7.66,-3.58 14.29,-9.27 18.74,-16.48 l 0.47,-0.01 c 2.71,8.84 1.74,19.24 -4.3,26.52 -6.74,8.22 -16.26,13.4 -25.65,18.01 -1.92,-2.87 -4.17,-5.6 -7.18,-7.38 -9.07,-5.81 -19.39,-9.33 -29.73,-12.12 -9.82,-2.48 -19.96,-4.4 -30.13,-3.68 -2.97,0.33 -6.57,0.79 -8.26,3.61 -0.69,2.8 1.67,5.05 3.56,6.74 5.61,4.56 12.35,7.43 19.04,10.02 12.33,4.51 25.29,7.62 38.44,8.16 -16.34,6.44 -33.73,9.76 -51.01,12.64 -29.19,4.42 -58.9,5.85 -88.36,3.61 0.14,-0.51 0.43,-1.52 0.57,-2.03 0.9,-2.91 1.88,-5.8 2.46,-8.8 6.11,-2.88 11.03,-8.79 11.18,-15.76 -0.17,0.02 -0.51,0.08 -0.68,0.1 -10.06,-11.35 -18.87,-24.57 -21.49,-39.78 -2.14,-9.6 -0.57,-19.63 2.73,-28.79 0.7,-2.11 1.9,-4.04 3.64,-5.44 6.88,0.8 14.1,-2.18 17.86,-8.1 3.64,-5.31 3.58,-12.24 1.45,-18.11 2.59,-1.87 5.28,-3.6 7.73,-5.67 0.56,3.15 0.63,6.95 3.51,9.01 4.55,3.83 12.63,1.18 13.63,-4.81 1.13,-4.5 -1.91,-8.78 -6.04,-10.33 -0.06,-0.35 -0.19,-1.04 -0.26,-1.39 10.51,-5.69 21.42,-11.01 33.37,-12.78 -19.78,-4.43 -39.67,-8.86 -59.94,-10.36 -18.6,-0.79 -37.4,-0.7 -55.67,3.31 -10.8,2.61 -21.73,5.22 -31.78,10.08 l -0.16,0.08 c -4.88,-3.1 -10.28,-5.25 -15.82,-6.88 19.97,-8.61 41.65,-12.17 63.06,-15.13 0.83,2.16 1.48,4.38 1.93,6.65 2.01,-1.98 3.45,-4.41 3.98,-7.21 z"
       id="path52"
       inkscape:connector-curvature="0"
       style="opacity:1;fill:#dfbe02" />
    <path
       d="m 118.86,328.87 c 7.49,2.44 15.39,3.56 23.27,3.26 1.1,1.83 2.2,3.67 3.28,5.51 -7.5,-0.41 -15.06,-0.18 -22.46,1.15 -1.44,-3.28 -2.8,-6.58 -4.09,-9.92 z"
       id="path54"
       inkscape:connector-curvature="0"
       style="opacity:1;fill:#dfbe02" />
    <path
       d="m 139.05,358.21 c 7.36,-0.76 14.78,-1.9 21.61,-4.87 8.08,7.19 18.09,11.54 27.65,16.34 5.98,2.71 12,5.46 18.42,6.97 0.87,4.83 3.79,8.76 7.57,11.74 1.14,4.1 1.58,8.37 2.41,12.54 -19.17,-4.72 -38.09,-11.31 -55.01,-21.65 -9.18,-5.73 -17.96,-12.36 -25.04,-20.6 0.6,-0.12 1.79,-0.35 2.39,-0.47 z"
       id="path56"
       inkscape:connector-curvature="0"
       style="opacity:1;fill:#dfbe02" />
    <path
       d="m 208.88,377.97 c 6.87,2.19 13.95,3.76 20.63,6.51 -2.67,1.31 -5.49,2.85 -8.58,2.5 -5.28,-0.59 -9.89,-4.2 -12.05,-9.01 z"
       id="path58"
       inkscape:connector-curvature="0"
       style="opacity:1;fill:#dfbe02" />
    <path
       d="m 248.52,387.94 c 8.7,0.89 17.41,1.68 26.11,2.54 -2.45,2.32 -5.3,4.47 -8.75,4.91 -6.61,0.94 -13.08,-2.61 -17.36,-7.45 z"
       id="path60"
       inkscape:connector-curvature="0"
       style="opacity:1;fill:#dfbe02" />
  </g>
  <g
     id="#fcf218ff"
     transform="matrix(0.53112032,0,0,0.53112032,-6.7999995e-7,63.999998)">
    <path
       d="m 518.06,40.02 c 1.67,-1.07 3.77,-1.16 5.64,-1.78 0.91,1.44 1.91,2.85 2.68,4.39 1.77,3.57 -0.72,8.58 -4.78,8.96 -2.67,0.26 -4.27,-2.38 -6.12,-3.84 0.74,-2.58 0.39,-5.8 2.58,-7.73 z"
       id="path63"
       inkscape:connector-curvature="0"
       style="opacity:1;fill:#fcf218" />
    <path
       d="m 530.43,48.46 c 4.81,-3.67 12.02,-3.51 16.66,0.39 4.46,3.47 5.7,9.34 6.62,14.6 -0.28,2.16 -0.86,4.28 -1.66,6.3 -1.69,2.63 -3.6,5.12 -5.84,7.3 -4.78,1.69 -10.5,2.84 -15,-0.21 -9.79,-5.91 -9.89,-21.79 -0.78,-28.38 z"
       id="path65"
       inkscape:connector-curvature="0"
       style="opacity:1;fill:#fcf218" />
    <path
       d="m 32.24,74.35 c 1.81,0.62 3.77,0.92 5.43,1.92 1.46,1.51 1.41,3.85 2.03,5.75 -1.24,0.94 -2.42,1.98 -3.8,2.72 -3.38,1.47 -7.49,-2.05 -6.57,-5.62 0.7,-1.74 1.89,-3.21 2.91,-4.77 z"
       id="path67"
       inkscape:connector-curvature="0"
       style="opacity:1;fill:#fcf218" />
    <path
       d="m 8.69,83.66 c 5.45,-5.45 15.6,-4.86 20.17,1.45 4.51,5.34 3.04,14.13 -2.7,17.97 -4.41,3.4 -10.36,2.74 -15.33,1.14 C 9.14,102.79 7.59,101.2 6.11,99.56 5.22,97.92 4.69,96.11 4.26,94.3 4.83,90.49 5.68,86.34 8.69,83.66 Z"
       id="path69"
       inkscape:connector-curvature="0"
       style="opacity:1;fill:#fcf218" />
    <path
       d="m 427.02,111.96 c 12.88,-2.44 26.04,-2.72 39.1,-3.44 13.36,-0.47 26.78,-1.01 40.12,-0.07 -7.3,2.26 -14.86,3.49 -22.21,5.55 -18.05,4.83 -36.14,9.54 -53.93,15.24 -23.56,8.27 -46.53,18.12 -69.21,28.53 -12.72,5.67 -26.79,8.72 -40.74,7.53 4.02,-8.55 8,-17.12 12.45,-25.45 17.62,-5.8 34.53,-13.64 52.33,-18.93 13.8,-3.98 27.98,-6.35 42.09,-8.96 z"
       id="path71"
       inkscape:connector-curvature="0"
       style="opacity:1;fill:#fcf218" />
    <path
       d="m 490.92,142.06 c 20.06,-4.21 40.69,-6.94 61.19,-4.81 12.01,1.25 23.48,5.77 33.86,11.81 4.45,2.77 9.19,6.44 10.14,11.93 0.79,4.87 -3.02,8.88 -6.66,11.5 -8.24,5.76 -18.64,6.08 -28.16,8.02 -14.3,3 -28.99,3.59 -43.24,6.79 -9.12,1.91 -18.7,3.79 -26.38,9.38 -2.98,2.05 -4.54,5.38 -5.62,8.71 -9.8,-8.19 -21.26,-14.83 -33.92,-17.24 -5.08,-1.07 -10.5,-2.22 -14.48,-5.79 -2.73,-2.47 -2.48,-6.69 -1.05,-9.79 2.69,-5.92 7.85,-10.21 13.01,-13.94 12.41,-8.36 26.79,-13.33 41.31,-16.57 z"
       id="path73"
       inkscape:connector-curvature="0"
       style="opacity:1;fill:#fcf218" />
    <path
       d="m 287.55,163.86 c 8.24,-4.89 16.47,-9.81 24.98,-14.21 -2.26,5.16 -4.8,10.2 -7.11,15.34 -5.96,-0.29 -11.99,0.14 -17.87,-1.13 z"
       id="path75"
       inkscape:connector-curvature="0"
       style="opacity:1;fill:#fcf218" />
    <path
       d="m 248.97,196.15 c 14.9,-2 29.91,-3.29 44.96,-2.57 -0.66,2 -1.33,3.99 -1.97,5.99 -10.34,-0.01 -20.68,-0.14 -31.02,0.01 -8.7,0.95 -17.45,1.51 -26.07,3.09 -0.53,-1.47 -1.05,-2.93 -1.56,-4.39 5.13,-1.27 10.41,-1.68 15.66,-2.13 z"
       id="path77"
       inkscape:connector-curvature="0"
       style="opacity:1;fill:#fcf218" />
    <path
       d="m 305.65,199.04 c 0.44,-1.14 0.88,-2.29 1.33,-3.43 19.84,1.52 39.7,4.42 58.62,10.78 16.16,5.09 31.28,12.83 46.33,20.48 -5.28,-1.48 -10.36,-3.57 -15.54,-5.35 -29.33,-10.65 -59.61,-19.26 -90.74,-22.48 z"
       id="path79"
       inkscape:connector-curvature="0"
       style="opacity:1;fill:#fcf218" />
    <path
       d="m 199.27,208.04 c 6.94,-3.89 15.04,-4.72 22.64,-6.64 0.41,1.18 0.82,2.36 1.22,3.55 -5.36,0.56 -10.59,1.91 -15.87,2.95 -2.66,0.18 -5.33,0.19 -7.99,0.14 z"
       id="path81"
       inkscape:connector-curvature="0"
       style="opacity:1;fill:#fcf218" />
    <path
       d="m 196.31,265.31 c 19.58,-8.07 40.63,-12.24 61.72,-13.55 13.11,-0.33 26.73,-1.05 39.22,3.73 -8.97,5.37 -18.96,9.07 -27.14,15.74 5.81,1.44 10.89,5.01 13.89,10.23 2.13,5.87 2.19,12.8 -1.45,18.11 -3.76,5.92 -10.98,8.9 -17.86,8.1 -3.35,-0.71 -6.73,-1.84 -9.33,-4.14 -3.32,-2.72 -4.86,-6.85 -6.63,-10.62 -9.22,14.11 -11,32.02 -7.01,48.17 2.1,10.35 6.85,19.82 10.37,29.7 -17.52,-0.99 -34.53,-6.26 -50.38,-13.58 -14.65,-7.08 -29.2,-15.85 -39.08,-29.07 16.68,-6.17 30.53,-19.59 37.23,-36.05 3.68,-8.76 2.68,-19.41 -3.55,-26.77 z"
       id="path83"
       inkscape:connector-curvature="0"
       style="opacity:1;fill:#fcf218" />
  </g>
  <g
     id="#e8d100ff"
     transform="matrix(0.53112032,0,0,0.53112032,-6.7999995e-7,63.999998)">
    <path
       d="m 344.5,127.65 c 53.39,-18.9 110.74,-28.76 167.35,-22.84 12.36,1.37 24.69,3.34 36.72,6.55 -25.34,0.53 -50.33,5.62 -74.67,12.4 -29.23,8.21 -57.76,18.76 -85.76,30.45 -10.1,4.13 -20,8.75 -30.13,12.78 -13.36,4.54 -27.55,6.67 -41.64,6.77 1.21,-2.84 2.49,-5.65 3.78,-8.46 13.95,1.19 28.02,-1.86 40.74,-7.53 22.68,-10.41 45.65,-20.26 69.21,-28.53 17.79,-5.7 35.88,-10.41 53.93,-15.24 7.35,-2.06 14.91,-3.29 22.21,-5.55 -13.34,-0.94 -26.76,-0.4 -40.12,0.07 -13.06,0.72 -26.22,1 -39.1,3.44 -14.11,2.61 -28.29,4.98 -42.09,8.96 -17.8,5.29 -34.71,13.13 -52.33,18.93 1.63,-3.16 3.12,-6.4 5.03,-9.4 2.04,-1.42 4.57,-1.9 6.87,-2.8 z"
       id="path86"
       inkscape:connector-curvature="0"
       style="opacity:1;fill:#e8d100" />
    <path
       d="m 520.07,131.76 c 11.57,-1.39 23.25,-0.89 34.87,-0.83 15.56,1 31.16,3.26 45.96,8.31 4.39,1.57 9.07,2.98 12.42,6.42 7.47,7.11 13.64,16.71 13.66,27.34 -0.02,6.25 -4.57,11.49 -10.01,14.05 -14.34,6.93 -30.44,8.39 -45.93,11.01 -17.83,3.74 -36.21,6.85 -52.41,15.6 -9.24,4.86 -17.14,13.03 -20.18,23.18 -4.38,-4.03 -8.25,-8.59 -12.73,-12.5 -6.18,-5.13 -13.07,-9.42 -20.45,-12.59 -11.77,-4.9 -23.78,-9.24 -35.25,-14.84 -5.66,-3.27 -11.97,-7.26 -13.8,-13.95 -1.36,-6.44 2.79,-12.36 7.19,-16.61 9.33,-8.42 20.84,-14 32.46,-18.53 20.01,-9.69 42.19,-14.05 64.2,-16.06 m -29.15,10.3 c -14.52,3.24 -28.9,8.21 -41.31,16.57 -5.16,3.73 -10.32,8.02 -13.01,13.94 -1.43,3.1 -1.68,7.32 1.05,9.79 3.98,3.57 9.4,4.72 14.48,5.79 12.66,2.41 24.12,9.05 33.92,17.24 1.08,-3.33 2.64,-6.66 5.62,-8.71 7.68,-5.59 17.26,-7.47 26.38,-9.38 14.25,-3.2 28.94,-3.79 43.24,-6.79 9.52,-1.94 19.92,-2.26 28.16,-8.02 3.64,-2.62 7.45,-6.63 6.66,-11.5 -0.95,-5.49 -5.69,-9.16 -10.14,-11.93 -10.38,-6.04 -21.85,-10.56 -33.86,-11.81 -20.5,-2.13 -41.13,0.6 -61.19,4.81 z"
       id="path88"
       inkscape:connector-curvature="0"
       style="opacity:1;fill:#e8d100" />
    <path
       d="m 227.93,185.27 c 28.95,-18.31 59.26,-34.55 90.9,-47.71 -2.26,3.94 -3.95,8.22 -6.3,12.09 -8.51,4.4 -16.74,9.32 -24.98,14.21 5.88,1.27 11.91,0.84 17.87,1.13 -1.39,3.25 -2.8,6.5 -4.19,9.76 -12.46,-0.07 -24.98,0.64 -37.2,3.21 -11.9,2.33 -23.33,6.46 -34.82,10.25 -0.43,-0.98 -0.86,-1.96 -1.28,-2.94 z"
       id="path90"
       inkscape:connector-curvature="0"
       style="opacity:1;fill:#e8d100" />
    <path
       d="m 220.33,248.44 c 18.27,-4.01 37.07,-4.1 55.67,-3.31 20.27,1.5 40.16,5.93 59.94,10.36 -11.95,1.77 -22.86,7.09 -33.37,12.78 0.07,0.35 0.2,1.04 0.26,1.39 -2.29,0.22 -4.78,0.1 -6.84,1.27 -1.67,1.38 -2.84,3.24 -4.26,4.86 -2.45,2.07 -5.14,3.8 -7.73,5.67 -3,-5.22 -8.08,-8.79 -13.89,-10.23 8.18,-6.67 18.17,-10.37 27.14,-15.74 -12.49,-4.78 -26.11,-4.06 -39.22,-3.73 -21.09,1.31 -42.14,5.48 -61.72,13.55 -2.38,-2.49 -5.01,-4.72 -7.76,-6.79 10.05,-4.86 20.98,-7.47 31.78,-10.08 z"
       id="path92"
       inkscape:connector-curvature="0"
       style="opacity:1;fill:#e8d100" />
    <path
       d="m 241.72,341.08 c -3.99,-16.15 -2.21,-34.06 7.01,-48.17 1.77,3.77 3.31,7.9 6.63,10.62 2.6,2.3 5.98,3.43 9.33,4.14 -1.74,1.4 -2.94,3.33 -3.64,5.44 -3.3,9.16 -4.87,19.19 -2.73,28.79 2.62,15.21 11.43,28.43 21.49,39.78 -1.3,3.16 -3.04,6.13 -5.18,8.8 -8.7,-0.86 -17.41,-1.65 -26.11,-2.54 l -0.1,-0.01 c -2.17,-3.06 -4.07,-7.48 -8.37,-7.72 -3.88,0.25 -7.25,2.4 -10.54,4.27 -6.68,-2.75 -13.76,-4.32 -20.63,-6.51 -0.91,-3.52 -0.53,-7.13 -0.15,-10.68 -1.71,2.81 -2.15,6.11 -2,9.36 -6.42,-1.51 -12.44,-4.26 -18.42,-6.97 -9.56,-4.8 -19.57,-9.15 -27.65,-16.34 2.53,-1.49 5.79,-3.2 6.06,-6.49 -0.05,-2.53 -2.36,-4.18 -4.38,-5.25 -5.25,-2.61 -11.16,-3.43 -16.93,-3.96 -1.08,-1.84 -2.18,-3.68 -3.28,-5.51 6.99,-0.31 13.9,-1.69 20.5,-4 9.88,13.22 24.43,21.99 39.08,29.07 15.85,7.32 32.86,12.59 50.38,13.58 -3.52,-9.88 -8.27,-19.35 -10.37,-29.7 z"
       id="path94"
       inkscape:connector-curvature="0"
       style="opacity:1;fill:#e8d100" />
  </g>
  <g
     id="#a8ff00ff"
     transform="matrix(0.53112032,0,0,0.53112032,-6.7999995e-7,63.999998)">
    <path
       d="m 688.97,256.66 c 1.43,-1.29 2.89,-2.54 4.36,-3.79 -0.42,4.1 1.08,8.06 0.97,12.15 0.15,6.61 -1.21,13.27 -3.94,19.29 -0.94,2.35 -3.19,3.67 -5.47,4.46 -0.12,-0.82 -0.34,-2.45 -0.45,-3.27 -0.57,-4.71 0.97,-9.25 2.52,-13.62 1.74,-4.88 1.95,-10.09 2.01,-15.22 z"
       id="path97"
       inkscape:connector-curvature="0"
       style="opacity:1;fill:#a8ff00" />
    <path
       d="m 658.87,277.99 c 2.06,-1.21 4.11,-2.44 6.13,-3.71 5.35,15.67 1.56,36.31 -13.3,45.5 -3.24,1.86 -7.88,4.73 -11.09,1.35 0.51,-2.94 0.97,-6.11 3.2,-8.31 5.31,-5.85 10.97,-11.86 13.46,-19.53 1.12,-5.02 0.76,-10.23 1.6,-15.3 z"
       id="path99"
       inkscape:connector-curvature="0"
       style="opacity:1;fill:#a8ff00" />
    <path
       d="m 619.15,299.36 c 1.35,-0.66 2.67,-1.34 4.02,-2.01 5.23,1.5 9.25,5.78 11.33,10.69 1.77,7.76 -2.61,15.28 -7.06,21.31 -3.57,-0.53 -7.16,-0.85 -10.73,-1.25 -3.14,3.52 0.47,6.95 3.3,9.02 -4.91,3.27 -10.33,5.79 -16.02,7.34 -2.91,0.77 -6.14,0.98 -8.76,-0.72 0.95,-2.13 1.22,-4.83 3.37,-6.17 4,-2.93 8.43,-5.56 11.2,-9.82 3.25,-4.57 3.78,-10.31 4.67,-15.68 0.7,-4.51 2.67,-8.66 4.68,-12.71 z"
       id="path101"
       inkscape:connector-curvature="0"
       style="opacity:1;fill:#a8ff00" />
    <path
       d="m 575.34,318.44 c 2.66,-0.96 5.64,-2.95 8.47,-1.4 3.48,2.11 4.78,6.34 5.58,10.1 1.46,7.74 -2.2,15.41 -7.09,21.2 -4.73,-0.78 -9.5,-1.28 -14.29,-1.42 -0.39,1.51 -1.44,3.13 -0.61,4.69 1.21,2.21 3.47,3.56 5.37,5.13 -5.84,3.21 -12.16,5.96 -18.86,6.51 -1.69,0.12 -4.17,-0.41 -4.3,-2.49 0.43,-1.95 0.93,-4.13 2.84,-5.17 4.91,-3.35 10.27,-6.56 13.32,-11.86 2.68,-4.21 2.98,-9.29 4.02,-14.03 0.88,-4.01 3.3,-7.41 5.34,-10.89 z"
       id="path103"
       inkscape:connector-curvature="0"
       style="opacity:1;fill:#a8ff00" />
    <path
       d="m 527.71,335.25 c 3.5,-1.5 7.39,-2.95 11.26,-2.39 2.94,0.38 4.85,3.23 4.95,6.05 0.79,10.51 -4.48,21.18 -12.85,27.44 -6.14,-0.72 -12.26,-1.73 -18.45,-1.97 -0.56,1.18 -1.19,2.35 -1.48,3.64 0.41,3.02 3.14,4.84 5.2,6.76 -8.53,2.66 -17.51,4.63 -26.49,3.76 -3.5,-0.37 -7.53,-1.71 -8.8,-5.35 0.25,-2.33 0.69,-4.64 1.15,-6.94 6.14,-0.34 12.58,-0.81 17.99,-4.05 6.55,-3.91 11.24,-10.11 16.11,-15.83 3.37,-4.14 7.64,-7.38 11.41,-11.12 z"
       id="path105"
       inkscape:connector-curvature="0"
       style="opacity:1;fill:#a8ff00" />
  </g>
  <g
     id="#5d9e12ff"
     transform="matrix(0.53112032,0,0,0.53112032,-6.7999995e-7,63.999998)">
    <path
       d="m 112,263.12 c 13.72,-7.93 30.14,-10.38 45.76,-8.76 10.89,1.29 22.13,4.94 29.89,13.04 3.59,4.02 6.96,8.96 6.63,14.61 -0.07,11.43 -7.67,21.19 -16.38,27.85 -11.66,8.69 -25.97,14.16 -40.56,14.58 5.95,-2.64 12.5,-3.72 18.21,-6.92 3.78,-1.76 6.93,-4.51 9.89,-7.4 1.32,-0.85 2.65,-1.68 3.94,-2.56 6.47,-3.86 10.18,-12.25 7.39,-19.47 -3.38,-8.98 -13.6,-13.75 -22.8,-12.96 -3.58,0.42 -7.06,1.48 -10.69,1.55 -2.12,-6.08 -8.32,-9.24 -14.46,-9.56 12.77,-4.24 26.8,-1.59 38.43,4.65 6,3.01 11.19,7.29 16.7,11.05 -3.2,-8.77 -11.12,-14.72 -19.39,-18.39 -13.07,-5.81 -28.74,-6.89 -41.89,-0.75 -10.42,4.88 -17.89,14.74 -21.24,25.6 4.83,-6.79 10.39,-13.11 17.48,-17.61 -2.1,3.5 -3.72,7.37 -3.7,11.53 -10.32,6.16 -10.46,21.42 -3.87,30.37 2.98,4.53 8.01,6.79 12.78,8.92 0.09,0.31 0.27,0.94 0.37,1.25 -6.97,-1.29 -13.77,-4.23 -18.88,-9.23 -8.03,-7.61 -12.36,-19.38 -10.27,-30.35 1.81,-9.2 8.77,-16.47 16.66,-21.04 z"
       id="path108"
       inkscape:connector-curvature="0"
       style="opacity:1;fill:#5d9e12" />
    <path
       d="m 375.43,282.57 c 11.25,-1.58 22.71,-0.57 33.77,1.8 12.18,2.44 23.99,7.83 33.13,16.34 7.61,7.05 8.39,18.67 5.94,28.19 -2.63,10.77 -11.6,18.69 -21.26,23.35 -10.44,5.27 -22.61,5.56 -33.96,3.81 -15.04,-2.6 -28.47,-11.41 -38.65,-22.55 -5.51,-6.31 -10.31,-13.97 -10.65,-22.57 -0.36,-8.89 4.97,-17.18 12,-22.22 6.04,-3.38 12.88,-5.13 19.68,-6.15 m 6.43,3.64 c -11.68,2.14 -22.2,9.63 -28.16,19.89 5.29,-4.33 10.82,-8.39 17.1,-11.2 -1.94,4.84 -2.4,10.76 1.14,15 -5.55,0.83 -11.43,1.59 -16.18,4.82 -3.83,2.66 -2.22,7.92 -1.04,11.56 3.75,8.63 11.37,14.83 19.04,19.89 7.46,4.41 15.53,8.54 24.36,8.93 10.2,0.8 21.59,-1.37 28.76,-9.22 3.06,-3.38 6.04,-7.73 5.51,-12.5 0.38,-0.66 0.7,-1.33 0.98,-2.04 3.09,-5.37 2.36,-12.54 -1.42,-17.39 -3.97,-5.1 -10.05,-8.28 -16.31,-9.55 -7.49,-1.7 -15.07,-0.04 -22.24,2.18 2.51,-5.72 -0.28,-12.04 -4.9,-15.7 6.96,-0.22 13.97,0.71 20.54,3.07 13.95,4.92 25.26,15.01 34.86,25.98 -1.59,-9.88 -9,-17.52 -16.91,-23.02 -13.02,-8.86 -29.43,-13.69 -45.13,-10.7 z"
       id="path110"
       inkscape:connector-curvature="0"
       style="opacity:1;fill:#5d9e12" />
  </g>
  <g
     id="#7dcc00ff"
     transform="matrix(0.53112032,0,0,0.53112032,-6.7999995e-7,63.999998)">
    <path
       d="m 679.18,264.38 c 3.4,-2.4 6.58,-5.08 9.79,-7.72 -0.06,5.13 -0.27,10.34 -2.01,15.22 -1.55,4.37 -3.09,8.91 -2.52,13.62 -1.29,1.52 -2.56,3.06 -3.84,4.58 1.28,-8.45 3.05,-17.86 -1.42,-25.7 z"
       id="path113"
       inkscape:connector-curvature="0"
       style="opacity:1;fill:#7dcc00" />
    <path
       d="m 638.9,289.28 c 6.74,-3.62 13.42,-7.35 19.97,-11.29 -0.84,5.07 -0.48,10.28 -1.6,15.3 -2.49,7.67 -8.15,13.68 -13.46,19.53 -2.23,2.2 -2.69,5.37 -3.2,8.31 -1.81,1.62 -3.74,3.11 -5.75,4.48 4.92,-11.31 7.18,-24.24 4.04,-36.33 z"
       id="path115"
       inkscape:connector-curvature="0"
       style="opacity:1;fill:#7dcc00" />
    <path
       d="m 596.04,309.88 c 7.73,-3.45 15.4,-7.02 23.11,-10.52 -2.01,4.05 -3.98,8.2 -4.68,12.71 -0.89,5.37 -1.42,11.11 -4.67,15.68 -2.77,4.26 -7.2,6.89 -11.2,9.82 -2.15,1.34 -2.42,4.04 -3.37,6.17 -1.26,1.47 -3.54,1.84 -5.16,2.83 6.4,-10.99 8.98,-24.22 5.97,-36.69 z"
       id="path117"
       inkscape:connector-curvature="0"
       style="opacity:1;fill:#7dcc00" />
    <path
       d="m 551.88,327.18 c 7.82,-2.61 15.36,-5.98 23.25,-8.37 -2.04,3.48 -4.46,6.88 -5.34,10.89 -1.04,4.74 -1.34,9.82 -4.02,14.03 -3.05,5.3 -8.41,8.51 -13.32,11.86 -1.91,1.04 -2.41,3.22 -2.84,5.17 -0.55,0.02 -1.65,0.05 -2.21,0.07 -0.4,0 -1.2,-0.01 -1.6,-0.01 5.56,-10.14 7.87,-22.19 6.08,-33.64 z"
       id="path119"
       inkscape:connector-curvature="0"
       style="opacity:1;fill:#7dcc00" />
    <path
       d="m 481.67,341.06 c 15.63,2.47 30.96,-2.48 46.04,-5.81 -3.77,3.74 -8.04,6.98 -11.41,11.12 -4.87,5.72 -9.56,11.92 -16.11,15.83 -5.41,3.24 -11.85,3.71 -17.99,4.05 -0.46,2.3 -0.9,4.61 -1.15,6.94 l -1.22,-0.68 c -0.52,-0.22 -1.57,-0.65 -2.1,-0.87 3.73,-9.7 5.31,-20.25 3.94,-30.58 z"
       id="path121"
       inkscape:connector-curvature="0"
       style="opacity:1;fill:#7dcc00" />
  </g>
  <g
     id="#afff00ff"
     transform="matrix(0.53112032,0,0,0.53112032,-6.7999995e-7,63.999998)">
    <path
       d="m 122.67,263.68 c 13.15,-6.14 28.82,-5.06 41.89,0.75 8.27,3.67 16.19,9.62 19.39,18.39 -5.51,-3.76 -10.7,-8.04 -16.7,-11.05 -11.63,-6.24 -25.66,-8.89 -38.43,-4.65 6.14,0.32 12.34,3.48 14.46,9.56 0.62,2.45 0.92,4.97 1.02,7.5 -1.25,5.56 -5.32,10.11 -10.72,11.94 -4.16,0.39 -8.71,0.22 -12.17,-2.43 -3.58,-2.33 -5.38,-6.44 -6.2,-10.49 -0.02,-4.16 1.6,-8.03 3.7,-11.53 -7.09,4.5 -12.65,10.82 -17.48,17.61 3.35,-10.86 10.82,-20.72 21.24,-25.6 z"
       id="path124"
       inkscape:connector-curvature="0"
       style="opacity:1;fill:#afff00" />
    <path
       d="m 381.86,286.21 c 15.7,-2.99 32.11,1.84 45.13,10.7 7.91,5.5 15.32,13.14 16.91,23.02 -9.6,-10.97 -20.91,-21.06 -34.86,-25.98 -6.57,-2.36 -13.58,-3.29 -20.54,-3.07 4.62,3.66 7.41,9.98 4.9,15.7 -0.46,1.04 -0.97,2.06 -1.51,3.06 -3.13,3.9 -8.24,5.09 -13.03,4.54 -2.74,-0.55 -4.97,-2.39 -6.92,-4.28 -3.54,-4.24 -3.08,-10.16 -1.14,-15 -6.28,2.81 -11.81,6.87 -17.1,11.2 5.96,-10.26 16.48,-17.75 28.16,-19.89 z"
       id="path126"
       inkscape:connector-curvature="0"
       style="opacity:1;fill:#afff00" />
  </g>
  <g
     id="#ffff00ff"
     transform="matrix(0.53112032,0,0,0.53112032,-6.7999995e-7,63.999998)">
    <path
       d="m 295.99,270.93 c 2.06,-1.17 4.55,-1.05 6.84,-1.27 4.13,1.55 7.17,5.83 6.04,10.33 -1,5.99 -9.08,8.64 -13.63,4.81 -2.88,-2.06 -2.95,-5.86 -3.51,-9.01 1.42,-1.62 2.59,-3.48 4.26,-4.86 z"
       id="path129"
       inkscape:connector-curvature="0"
       style="opacity:1;fill:#ffff00" />
  </g>
  <g
     id="#80c80aff"
     transform="matrix(0.53112032,0,0,0.53112032,-6.7999995e-7,63.999998)">
    <path
       d="m 143.28,276.68 c 3.63,-0.07 7.11,-1.13 10.69,-1.55 9.2,-0.79 19.42,3.98 22.8,12.96 2.79,7.22 -0.92,15.61 -7.39,19.47 1.21,-4.62 5.53,-10.01 1.35,-14.34 -6.73,-6.84 -16.36,-9.87 -25.46,-12.09 -0.32,1.01 -0.65,2.03 -0.97,3.05 -0.1,-2.53 -0.4,-5.05 -1.02,-7.5 z"
       id="path132"
       inkscape:connector-curvature="0"
       style="opacity:1;fill:#80c80a" />
    <path
       d="m 393.4,306.58 c 7.17,-2.22 14.75,-3.88 22.24,-2.18 6.26,1.27 12.34,4.45 16.31,9.55 3.78,4.85 4.51,12.02 1.42,17.39 -1.18,-4.99 -3.87,-9.68 -8.26,-12.49 -9.82,-6.41 -21.77,-8.15 -33.22,-9.21 0.54,-1 1.05,-2.02 1.51,-3.06 z"
       id="path134"
       inkscape:connector-curvature="0"
       style="opacity:1;fill:#80c80a" />
  </g>
  <g
     id="#75b800ff"
     transform="matrix(0.53112032,0,0,0.53112032,-6.7999995e-7,63.999998)">
    <path
       d="m 145.27,281.13 c 9.1,2.22 18.73,5.25 25.46,12.09 4.18,4.33 -0.14,9.72 -1.35,14.34 -1.29,0.88 -2.62,1.71 -3.94,2.56 -8.09,2.2 -17.47,2.2 -24.43,-3.05 -3.86,-2.51 -6.12,-6.65 -7.43,-10.95 5.4,-1.83 9.47,-6.38 10.72,-11.94 0.32,-1.02 0.65,-2.04 0.97,-3.05 z"
       id="path137"
       inkscape:connector-curvature="0"
       style="opacity:1;fill:#75b800" />
    <path
       d="m 378.86,314.18 c 4.79,0.55 9.9,-0.64 13.03,-4.54 11.45,1.06 23.4,2.8 33.22,9.21 4.39,2.81 7.08,7.5 8.26,12.49 -0.28,0.71 -0.6,1.38 -0.98,2.04 -7.72,9.82 -21.69,12.62 -33.33,9.4 -7.21,-1.95 -14.28,-6.72 -16.67,-14.09 -1.59,-4.56 -0.21,-9.36 1.48,-13.66 -1.67,-0.27 -3.35,-0.52 -5.01,-0.85 z"
       id="path139"
       inkscape:connector-curvature="0"
       style="opacity:1;fill:#75b800" />
  </g>
  <g
     id="#498200ff"
     transform="matrix(0.53112032,0,0,0.53112032,-6.7999995e-7,63.999998)">
    <path
       d="m 111.34,313.57 c -6.59,-8.95 -6.45,-24.21 3.87,-30.37 0.82,4.05 2.62,8.16 6.2,10.49 3.46,2.65 8.01,2.82 12.17,2.43 1.31,4.3 3.57,8.44 7.43,10.95 6.96,5.25 16.34,5.25 24.43,3.05 -2.96,2.89 -6.11,5.64 -9.89,7.4 -5.71,3.2 -12.26,4.28 -18.21,6.92 -4.18,1.13 -8.57,-0.23 -12.8,-0.52 l -0.05,-0.18 c -0.1,-0.31 -0.28,-0.94 -0.37,-1.25 -4.77,-2.13 -9.8,-4.39 -12.78,-8.92 z"
       id="path142"
       inkscape:connector-curvature="0"
       style="opacity:1;fill:#498200" />
    <path
       d="m 355.76,314.72 c 4.75,-3.23 10.63,-3.99 16.18,-4.82 1.95,1.89 4.18,3.73 6.92,4.28 1.66,0.33 3.34,0.58 5.01,0.85 -1.69,4.3 -3.07,9.1 -1.48,13.66 2.39,7.37 9.46,12.14 16.67,14.09 11.64,3.22 25.61,0.42 33.33,-9.4 0.53,4.77 -2.45,9.12 -5.51,12.5 -7.17,7.85 -18.56,10.02 -28.76,9.22 -8.83,-0.39 -16.9,-4.52 -24.36,-8.93 -7.67,-5.06 -15.29,-11.26 -19.04,-19.89 -1.18,-3.64 -2.79,-8.9 1.04,-11.56 z"
       id="path144"
       inkscape:connector-curvature="0"
       style="opacity:1;fill:#498200" />
  </g>
  <g
     id="#ff4295ff"
     transform="matrix(0.53112032,0,0,0.53112032,-6.7999995e-7,63.999998)">
    <path
       d="m 122.95,338.79 c 7.4,-1.33 14.96,-1.56 22.46,-1.15 5.77,0.53 11.68,1.35 16.93,3.96 2.02,1.07 4.33,2.72 4.38,5.25 -0.27,3.29 -3.53,5 -6.06,6.49 -6.83,2.97 -14.25,4.11 -21.61,4.87 -6.33,0.16 -12.68,0.19 -18.95,-0.74 -5.1,-0.99 -10.8,-2.01 -14.52,-5.93 -2.77,-3.68 1.38,-7.28 4.51,-8.76 4.05,-1.98 8.45,-3.14 12.86,-3.99 z"
       id="path147"
       inkscape:connector-curvature="0"
       style="opacity:1;fill:#ff4295" />
    <path
       d="m 344.61,367 c 1.69,-2.82 5.29,-3.28 8.26,-3.61 10.17,-0.72 20.31,1.2 30.13,3.68 10.34,2.79 20.66,6.31 29.73,12.12 3.01,1.78 5.26,4.51 7.18,7.38 -2.3,5.7 -9.23,5.03 -14.26,5.35 -13.15,-0.54 -26.11,-3.65 -38.44,-8.16 -6.69,-2.59 -13.43,-5.46 -19.04,-10.02 -1.89,-1.69 -4.25,-3.94 -3.56,-6.74 z"
       id="path149"
       inkscape:connector-curvature="0"
       style="opacity:1;fill:#ff4295" />
  </g>
  <g
     id="#111d008a"
     transform="matrix(0.53112032,0,0,0.53112032,-6.7999995e-7,63.999998)">
    <path
       d="m 547.4,360.83 c 1.01,2.36 -4.02,1.52 -1.6,-0.01 0.4,0 1.2,0.01 1.6,0.01 z"
       id="path152"
       inkscape:connector-curvature="0"
       style="opacity:0.54000005;fill:#111d00" />
  </g>
  <g
     id="#21370064"
     transform="matrix(0.53112032,0,0,0.53112032,-6.7999995e-7,63.999998)">
    <path
       d="m 479.83,372.51 c -0.48,1.77 -4.06,0.27 -2.1,-0.87 0.53,0.22 1.58,0.65 2.1,0.87 z"
       id="path155"
       inkscape:connector-curvature="0"
       style="opacity:0.38999999;fill:#213700" />
  </g>
  <g
     id="#ff005cff"
     transform="matrix(0.53112032,0,0,0.53112032,-6.7999995e-7,63.999998)">
    <path
       d="m 229.36,387.31 c 3.42,-1.77 6.5,-4.85 10.59,-4.79 5.72,1.37 6.79,8.26 11.43,11.12 4.74,2.77 10.16,4.5 15.69,4.47 -1.24,2.64 -2.45,5.29 -3.67,7.95 -13.11,-6.48 -30.09,-4.87 -40.85,5.37 -1.87,-7.49 -3.07,-15.19 -6,-22.37 4.3,0.76 8.97,0.52 12.81,-1.75 z"
       id="path158"
       inkscape:connector-curvature="0"
       style="opacity:1;fill:#ff005c" />
  </g>
  <g
     id="#ce0054ff"
     transform="matrix(0.53112032,0,0,0.53112032,-6.7999995e-7,63.999998)">
    <path
       d="m 222.55,411.43 c 10.76,-10.24 27.74,-11.85 40.85,-5.37 -3.59,7.48 -7.31,15.2 -13.36,21.04 -3.85,3.73 -9.75,6.04 -14.91,3.66 -7.84,-3.07 -10.44,-11.98 -12.58,-19.33 z"
       id="path161"
       inkscape:connector-curvature="0"
       style="opacity:1;fill:#ce0054" />
  </g>
</svg>
